<svg width="24" height="24" viewBox="0 0 24 24" fill="none" xmlns="http://www.w3.org/2000/svg">
<path fill-rule="evenodd" clip-rule="evenodd" d="M22 7.96361C22 9.07601 21.1078 9.98004 20 9.99919V16.7709C20.6559 17.0865 21.1766 17.6576 21.4174 18.3799L21.5228 18.6961C21.9005 19.8293 21.0571 20.9995 19.8626 20.9995H4.13743C2.94295 20.9995 2.0995 19.8293 2.47723 18.6961L2.58264 18.3799C2.82341 17.6576 3.3441 17.0865 4 16.7709V9.99919C3.15594 9.9846 2.43707 9.45634 2.1426 8.71361H2V7.96361C2 7.19552 2.43229 6.4928 3.11786 6.14645L10.76 2.28568C11.5397 1.89175 12.4603 1.89175 13.24 2.28568L20.8821 6.14645C21.5677 6.4928 22 7.19552 22 7.96361ZM16 9.9995H18.5V16.4995H16V9.9995ZM8 16.4995H5.5V9.9995H8V16.4995ZM9.5 16.4995V9.9995H14.5V16.4995H9.5Z" fill="#575B60"/>
</svg>
