<svg width="511" height="112" viewBox="0 0 511 112" fill="none" xmlns="http://www.w3.org/2000/svg">
<path fill-rule="evenodd" clip-rule="evenodd" d="M-0.000427246 55.7373C-0.000427246 86.5203 24.251 111.475 54.1667 111.475C84.0825 111.475 108.334 86.5203 108.334 55.7373C108.334 26.0457 85.7717 1.77649 57.3264 0.092873L1.35361 0C0.85508 0 0.450851 0.415944 0.450851 0.92873C0.450851 9.43653 6.00819 16.6084 13.5913 18.8111C5.13359 28.6438 -0.000427246 41.5737 -0.000427246 55.7373ZM53.625 23.5723C44.9493 23.5723 37.9164 72.4909 37.9164 81.4694C37.9164 90.4479 44.9493 96.7276 53.625 96.7276C62.3006 96.7276 69.3335 90.4479 69.3335 81.4694C69.3335 72.4909 62.3006 23.5723 53.625 23.5723Z" fill="#15B369"/>
<path d="M181.026 18.5635H191.857V64.1589C191.857 70.2383 190.37 75.4594 187.397 79.8223C184.424 84.2567 180.141 87.654 174.548 90.0142C168.955 92.4459 162.23 93.6618 154.372 93.6618L152.567 83.2553C161.487 83.0408 168.247 81.3242 172.849 78.1057C177.521 74.8872 179.857 70.2741 179.857 64.2662V64.1589H181.238C179.61 66.5907 177.238 68.6648 174.123 70.3813C171.079 72.0979 167.433 72.9561 163.186 72.9561C158.513 72.9561 154.372 71.8118 150.761 69.5231C147.151 67.2344 144.319 64.0159 142.266 59.8676C140.284 55.7193 139.293 50.8915 139.293 45.3843C139.293 39.8771 140.284 35.0494 142.266 30.9011C144.319 26.7528 147.151 23.5343 150.761 21.2456C154.372 18.9569 158.513 17.8125 163.186 17.8125C165.805 17.8125 168.177 18.1701 170.3 18.8853C172.495 19.529 174.406 20.4231 176.035 21.5674C177.734 22.6403 179.114 23.8561 180.176 25.2151L181.026 18.5635ZM152.142 45.3843C152.142 50.3194 153.416 54.3246 155.965 57.4001C158.513 60.4755 161.911 62.0132 166.159 62.0132C168.637 62.0132 170.902 61.3695 172.955 60.0821C175.008 58.7232 176.672 56.7921 177.946 54.2888C179.22 51.7856 179.857 48.8174 179.857 45.3843C179.857 41.8082 179.22 38.8043 177.946 36.3725C176.672 33.8692 174.973 31.9739 172.849 30.6865C170.796 29.3991 168.566 28.7554 166.159 28.7554C161.911 28.7554 158.513 30.2931 155.965 33.3686C153.416 36.3725 152.142 40.3778 152.142 45.3843Z" fill="#15B369"/>
<path d="M198.503 18.5635H209.334L210.29 25.2151C211.706 23.427 213.369 21.9608 215.281 20.8164C217.192 19.6006 219.245 18.7781 221.44 18.3489C223.705 17.9198 225.971 17.9913 228.236 18.5635V29.721C226.395 29.0773 224.413 28.9342 222.289 29.2918C220.236 29.5779 218.325 30.3647 216.555 31.6521C214.785 32.8679 213.334 34.6202 212.201 36.9089C211.069 39.1261 210.502 41.8797 210.502 45.1698V72.2052H198.503V18.5635Z" fill="#15B369"/>
<path d="M253.949 72.9561C248.852 72.9561 244.285 71.8475 240.25 69.6304C236.215 67.3416 233.065 64.1589 230.799 60.0821C228.534 55.9338 227.401 51.0703 227.401 45.4916C227.401 39.8413 228.569 34.9421 230.906 30.7938C233.242 26.6455 236.463 23.4628 240.569 21.2456C244.675 18.9569 249.241 17.8125 254.267 17.8125C259.364 17.8125 263.931 18.9569 267.966 21.2456C272.072 23.4628 275.328 26.6455 277.735 30.7938C280.142 34.8706 281.346 39.6983 281.346 45.277C281.346 50.9273 280.107 55.8266 277.629 59.9749C275.222 64.1231 271.93 67.3416 267.753 69.6304C263.647 71.8475 259.046 72.9561 253.949 72.9561ZM253.843 62.1205C256.32 62.1205 258.656 61.5126 260.851 60.2967C263.116 59.0808 264.957 57.257 266.373 54.8253C267.789 52.322 268.497 49.1392 268.497 45.277C268.497 41.5579 267.824 38.4824 266.479 36.0507C265.134 33.5474 263.364 31.6878 261.17 30.4719C258.975 29.2561 256.603 28.6481 254.055 28.6481C251.577 28.6481 249.276 29.2561 247.153 30.4719C245.1 31.6878 243.436 33.5474 242.162 36.0507C240.887 38.4824 240.25 41.6294 240.25 45.4916C240.25 49.2108 240.852 52.322 242.056 54.8253C243.33 57.257 244.993 59.0808 247.046 60.2967C249.099 61.5126 251.365 62.1205 253.843 62.1205Z" fill="#15B369"/>
<path d="M308.627 72.2052H296.84L280.487 18.5635H292.699L302.681 57.8292L312.981 18.5635H324.662L334.538 57.7219L344.413 18.5635H356.413L340.166 72.2052H328.166L318.503 35.9434L308.627 72.2052Z" fill="#15B369"/>
<path d="M358.405 18.5635H369.237L370.086 23.8204C371.856 21.9608 373.944 20.4946 376.351 19.4218C378.829 18.3489 381.484 17.8125 384.316 17.8125C388.492 17.8125 392.067 18.7065 395.041 20.4946C398.085 22.2111 400.421 24.7859 402.049 28.219C403.678 31.5805 404.492 35.8003 404.492 40.8784V72.2052H392.492V42.4877C392.492 37.9818 391.572 34.5845 389.731 32.2958C387.961 30.007 385.271 28.8627 381.661 28.8627C377.98 28.8627 375.183 30.0428 373.272 32.403C371.36 34.6917 370.405 38.0891 370.405 42.595V72.2052H358.405V18.5635Z" fill="#15B369"/>
<path d="M434.075 72.9561C428.766 72.9561 424.094 71.776 420.058 69.4158C416.094 67.0556 412.979 63.7655 410.714 59.5457C408.519 55.3259 407.422 50.4624 407.422 44.9552C407.422 39.7341 408.519 35.0851 410.714 31.0084C412.908 26.9316 415.952 23.7131 419.846 21.3528C423.74 18.9926 428.164 17.8125 433.12 17.8125C438.146 17.8125 442.571 18.9211 446.393 21.1383C450.216 23.3555 453.19 26.4667 455.313 30.4719C457.508 34.4057 458.605 38.9831 458.605 44.2042C458.605 45.0625 458.57 45.9923 458.499 46.9936C458.428 47.9234 458.322 48.9247 458.18 49.9975H420.377C420.731 52.5008 421.51 54.6822 422.713 56.5418C423.987 58.3298 425.58 59.7245 427.492 60.7258C429.403 61.7271 431.598 62.2278 434.075 62.2278C437.049 62.2278 439.703 61.6199 442.04 60.404C444.447 59.1881 446.11 57.5789 447.031 55.5762L457.543 59.1166C455.42 63.4079 452.269 66.8052 448.092 69.3085C443.916 71.7403 439.243 72.9561 434.075 72.9561ZM445.544 40.1274C445.473 37.9102 444.871 35.9076 443.739 34.1196C442.606 32.3315 441.119 30.9368 439.279 29.9355C437.438 28.8627 435.385 28.3263 433.12 28.3263C431.138 28.3263 429.262 28.8269 427.492 29.8282C425.722 30.8295 424.2 32.2242 422.926 34.0123C421.722 35.7288 420.943 37.7672 420.589 40.1274H445.544Z" fill="#15B369"/>
<path d="M486.27 72.9561C480.961 72.9561 476.288 71.776 472.253 69.4158C468.289 67.0556 465.174 63.7655 462.908 59.5457C460.714 55.3259 459.617 50.4624 459.617 44.9552C459.617 39.7341 460.714 35.0851 462.908 31.0084C465.103 26.9316 468.147 23.7131 472.041 21.3528C475.934 18.9926 480.359 17.8125 485.314 17.8125C490.341 17.8125 494.765 18.9211 498.588 21.1383C502.411 23.3555 505.384 26.4667 507.508 30.4719C509.703 34.4057 510.8 38.9831 510.8 44.2042C510.8 45.0625 510.765 45.9923 510.694 46.9936C510.623 47.9234 510.517 48.9247 510.375 49.9975H472.572C472.926 52.5008 473.704 54.6822 474.908 56.5418C476.182 58.3298 477.775 59.7245 479.686 60.7258C481.598 61.7271 483.792 62.2278 486.27 62.2278C489.243 62.2278 491.898 61.6199 494.234 60.404C496.641 59.1881 498.305 57.5789 499.225 55.5762L509.738 59.1166C507.614 63.4079 504.464 66.8052 500.287 69.3085C496.11 71.7403 491.438 72.9561 486.27 72.9561ZM497.739 40.1274C497.668 37.9102 497.066 35.9076 495.933 34.1196C494.801 32.3315 493.314 30.9368 491.473 29.9355C489.633 28.8627 487.58 28.3263 485.314 28.3263C483.332 28.3263 481.456 28.8269 479.686 29.8282C477.917 30.8295 476.395 32.2242 475.12 34.0123C473.917 35.7288 473.138 37.7672 472.784 40.1274H497.739Z" fill="#15B369"/>
</svg>
