<svg width="130" height="28" viewBox="0 0 130 28" fill="none" xmlns="http://www.w3.org/2000/svg">
<path fill-rule="evenodd" clip-rule="evenodd" d="M-0.000331879 14C-0.000331879 21.732 6.09111 28 13.6053 28C21.1195 28 27.2109 21.732 27.2109 14C27.2109 6.54212 21.5438 0.446217 14.3989 0.0233277L0.339773 0C0.214554 0 0.11302 0.104476 0.11302 0.233277C0.11302 2.37025 1.5089 4.17167 3.41362 4.72495C1.28922 7.1947 -0.000331879 10.4424 -0.000331879 14ZM13.4692 5.92085C11.2901 5.92085 9.52357 18.2082 9.52357 20.4634C9.52357 22.7186 11.2901 24.2959 13.4692 24.2959C15.6483 24.2959 17.4148 22.7186 17.4148 20.4634C17.4148 18.2082 15.6483 5.92085 13.4692 5.92085Z" fill="#15B369"/>
<path d="M45.4696 4.66324H48.1902V16.1158C48.1902 17.6428 47.8168 18.9543 47.07 20.0501C46.3231 21.1639 45.2473 22.0173 43.8426 22.6101C42.4378 23.2209 40.7486 23.5263 38.7748 23.5263L38.3214 20.9124C40.5619 20.8585 42.26 20.4274 43.4158 19.619C44.5894 18.8106 45.1762 17.6518 45.1762 16.1428V16.1158H45.523C45.114 16.7266 44.5183 17.2476 43.7359 17.6788C42.9713 18.1099 42.0555 18.3255 40.9886 18.3255C39.815 18.3255 38.7748 18.0381 37.8679 17.4632C36.9611 16.8883 36.2498 16.0799 35.7341 15.0379C35.2362 13.996 34.9873 12.7833 34.9873 11.4001C34.9873 10.0168 35.2362 8.80414 35.7341 7.76218C36.2498 6.72022 36.9611 5.9118 37.8679 5.33692C38.7748 4.76205 39.815 4.47461 40.9886 4.47461C41.6466 4.47461 42.2422 4.56443 42.7757 4.74408C43.3269 4.90577 43.807 5.13033 44.216 5.41776C44.6428 5.68724 44.9895 5.99264 45.2562 6.33397L45.4696 4.66324ZM38.2147 11.4001C38.2147 12.6396 38.5348 13.6457 39.1749 14.4182C39.815 15.1906 40.6686 15.5769 41.7355 15.5769C42.3578 15.5769 42.9268 15.4152 43.4425 15.0918C43.9582 14.7505 44.376 14.2654 44.6961 13.6367C45.0162 13.0079 45.1762 12.2624 45.1762 11.4001C45.1762 10.5018 45.0162 9.74729 44.6961 9.13649C44.376 8.50772 43.9493 8.03165 43.4158 7.70828C42.9002 7.38491 42.34 7.22323 41.7355 7.22323C40.6686 7.22323 39.815 7.60947 39.1749 8.38196C38.5348 9.13649 38.2147 10.1425 38.2147 11.4001Z" fill="#15B369"/>
<path d="M49.8595 4.66324H52.5801L52.8202 6.33397C53.1758 5.88485 53.5937 5.51657 54.0738 5.22913C54.5539 4.92373 55.0696 4.71713 55.6208 4.60935C56.1898 4.50156 56.7588 4.51952 57.3279 4.66324V7.46576C56.8655 7.30407 56.3676 7.26814 55.8342 7.35797C55.3185 7.42983 54.8384 7.62744 54.3939 7.95081C53.9493 8.25621 53.5848 8.69635 53.3003 9.27122C53.0158 9.82813 52.8735 10.5198 52.8735 11.3462V18.1369H49.8595V4.66324Z" fill="#15B369"/>
<path d="M63.7864 18.3255C62.5061 18.3255 61.3592 18.047 60.3456 17.4901C59.3321 16.9153 58.5408 16.1158 57.9718 15.0918C57.4027 14.0499 57.1182 12.8283 57.1182 11.427C57.1182 10.0078 57.4116 8.77719 57.9984 7.73523C58.5852 6.69327 59.3943 5.89383 60.4256 5.33692C61.457 4.76205 62.6039 4.47461 63.8664 4.47461C65.1467 4.47461 66.2936 4.76205 67.3071 5.33692C68.3385 5.89383 69.1564 6.69327 69.761 7.73523C70.3656 8.75922 70.6679 9.97185 70.6679 11.3731C70.6679 12.7923 70.3567 14.0229 69.7343 15.0649C69.1298 16.1068 68.3029 16.9153 67.2538 17.4901C66.2225 18.047 65.0667 18.3255 63.7864 18.3255ZM63.7597 15.6038C64.3821 15.6038 64.9689 15.4511 65.5201 15.1457C66.0891 14.8403 66.5514 14.3822 66.9071 13.7714C67.2627 13.1426 67.4405 12.3432 67.4405 11.3731C67.4405 10.4389 67.2716 9.66645 66.9337 9.05564C66.5959 8.42688 66.1513 7.95979 65.6001 7.65439C65.0489 7.34898 64.4532 7.19628 63.813 7.19628C63.1907 7.19628 62.6128 7.34898 62.0793 7.65439C61.5637 7.95979 61.1458 8.42688 60.8257 9.05564C60.5056 9.66645 60.3456 10.4569 60.3456 11.427C60.3456 12.3612 60.4968 13.1426 60.799 13.7714C61.1191 14.3822 61.537 14.8403 62.0527 15.1457C62.5683 15.4511 63.1373 15.6038 63.7597 15.6038Z" fill="#15B369"/>
<path d="M77.5204 18.1369H74.5598L70.4522 4.66324H73.5196L76.0268 14.5259L78.614 4.66324H81.548L84.0285 14.499L86.5091 4.66324H89.5231L85.4422 18.1369H82.4282L80.001 9.0287L77.5204 18.1369Z" fill="#15B369"/>
<path d="M90.0236 4.66324H92.7442L92.9576 5.98366C93.4021 5.51657 93.9267 5.14829 94.5313 4.87882C95.1536 4.60935 95.8204 4.47461 96.5317 4.47461C97.5808 4.47461 98.4788 4.69917 99.2256 5.14829C99.9903 5.57945 100.577 6.22618 100.986 7.08849C101.395 7.93284 101.6 8.99277 101.6 10.2683V18.1369H98.5855V10.6725C98.5855 9.5407 98.3543 8.68737 97.892 8.11249C97.4475 7.53762 96.7718 7.25018 95.8649 7.25018C94.9403 7.25018 94.2379 7.5466 93.7578 8.13944C93.2777 8.71431 93.0376 9.56764 93.0376 10.6994V18.1369H90.0236V4.66324Z" fill="#15B369"/>
<path d="M109.03 18.3255C107.697 18.3255 106.523 18.0291 105.51 17.4362C104.514 16.8434 103.731 16.017 103.162 14.9571C102.611 13.8972 102.335 12.6756 102.335 11.2923C102.335 9.98083 102.611 8.81312 103.162 7.78912C103.714 6.76513 104.478 5.95671 105.456 5.36387C106.434 4.77103 107.546 4.47461 108.79 4.47461C110.053 4.47461 111.164 4.75306 112.124 5.30998C113.085 5.86689 113.831 6.64836 114.365 7.65439C114.916 8.64245 115.192 9.7922 115.192 11.1036C115.192 11.3192 115.183 11.5528 115.165 11.8043C115.147 12.0378 115.121 12.2893 115.085 12.5588H105.59C105.678 13.1876 105.874 13.7355 106.176 14.2026C106.496 14.6517 106.897 15.002 107.377 15.2535C107.857 15.505 108.408 15.6308 109.03 15.6308C109.777 15.6308 110.444 15.4781 111.031 15.1727C111.635 14.8673 112.053 14.4631 112.284 13.96L114.925 14.8493C114.391 15.9272 113.6 16.7805 112.551 17.4093C111.502 18.0201 110.328 18.3255 109.03 18.3255ZM111.911 10.0796C111.893 9.52273 111.742 9.01972 111.458 8.57059C111.173 8.12147 110.8 7.77116 110.337 7.51965C109.875 7.25018 109.359 7.11544 108.79 7.11544C108.292 7.11544 107.821 7.2412 107.377 7.4927C106.932 7.74421 106.55 8.09453 106.23 8.54365C105.927 8.9748 105.732 9.4868 105.643 10.0796H111.911Z" fill="#15B369"/>
<path d="M122.14 18.3255C120.807 18.3255 119.633 18.0291 118.62 17.4362C117.624 16.8434 116.842 16.017 116.273 14.9571C115.721 13.8972 115.446 12.6756 115.446 11.2923C115.446 9.98083 115.721 8.81312 116.273 7.78912C116.824 6.76513 117.588 5.95671 118.566 5.36387C119.544 4.77103 120.656 4.47461 121.9 4.47461C123.163 4.47461 124.274 4.75306 125.235 5.30998C126.195 5.86689 126.942 6.64836 127.475 7.65439C128.026 8.64245 128.302 9.7922 128.302 11.1036C128.302 11.3192 128.293 11.5528 128.275 11.8043C128.257 12.0378 128.231 12.2893 128.195 12.5588H118.7C118.789 13.1876 118.984 13.7355 119.287 14.2026C119.607 14.6517 120.007 15.002 120.487 15.2535C120.967 15.505 121.518 15.6308 122.14 15.6308C122.887 15.6308 123.554 15.4781 124.141 15.1727C124.746 14.8673 125.163 14.4631 125.395 13.96L128.035 14.8493C127.502 15.9272 126.71 16.7805 125.661 17.4093C124.612 18.0201 123.439 18.3255 122.14 18.3255ZM125.021 10.0796C125.003 9.52273 124.852 9.01972 124.568 8.57059C124.283 8.12147 123.91 7.77116 123.447 7.51965C122.985 7.25018 122.469 7.11544 121.9 7.11544C121.403 7.11544 120.931 7.2412 120.487 7.4927C120.042 7.74421 119.66 8.09453 119.34 8.54365C119.038 8.9748 118.842 9.4868 118.753 10.0796H125.021Z" fill="#15B369"/>
</svg>
