<svg width="931" height="146" viewBox="0 0 931 146" fill="none" xmlns="http://www.w3.org/2000/svg">
<path d="M214.964 266.862C197.09 274.007 157.888 259.837 119.916 231.152C81.9443 202.468 57.5633 168.606 59.5842 149.486C61.5926 148.678 63.9091 148.103 66.4806 147.832C86.3751 145.701 120.967 159.71 154.624 185.135C188.282 210.561 211.213 240.006 214.602 259.725C215.043 262.273 215.123 264.658 214.93 266.837L214.964 266.862Z" fill="#6AB4F9"/>
<path d="M171.297 163.134C119.595 124.077 64.6405 109.687 48.5338 131.008C45.1527 135.484 43.7271 141.216 44.1503 147.846C44.5507 154.292 46.6364 161.569 50.2475 169.39C60.4988 191.415 82.8625 217.553 112.993 240.314C143.124 263.076 174.353 277.478 198.369 281.283C206.878 282.619 214.448 282.636 220.759 281.259C227.218 279.828 232.376 276.915 235.757 272.44C251.863 251.118 222.999 202.19 171.297 163.134ZM217.185 265.772C216.492 266.19 215.758 266.521 214.963 266.862C197.089 274.006 157.887 259.836 119.915 231.151C81.9435 202.467 57.5625 168.605 59.5833 149.485C59.6669 148.662 59.8113 147.83 60.0242 147.05C60.5185 145.043 61.3475 143.234 62.5455 141.648C74.8185 125.402 120.419 139.147 164.348 172.332C208.278 205.517 233.965 245.623 221.692 261.87C220.494 263.456 218.953 264.783 217.185 265.772Z" fill="#93CAFD"/>
<path d="M235.758 272.442L216.377 298.098C200.27 319.42 145.316 305.03 93.6136 265.973C41.9116 226.916 13.0206 178.024 29.1273 156.702L48.5085 131.046C45.1275 135.522 43.7018 141.253 44.1251 147.883C44.5255 154.33 46.6111 161.607 50.2223 169.427C60.4735 191.452 82.8372 217.59 112.968 240.352C143.099 263.113 174.328 277.516 198.343 281.321C206.853 282.656 214.423 282.673 220.734 281.296C227.193 279.865 232.35 276.953 235.731 272.477L235.758 272.442Z" fill="#1BB2F7"/>
<path d="M221.72 261.834C220.522 263.42 218.982 264.747 217.213 265.736C216.521 266.154 215.787 266.485 214.992 266.826C215.219 264.673 215.105 262.262 214.663 259.714C211.275 239.995 188.344 210.55 154.686 185.124C121.029 159.699 86.4102 145.725 66.5423 147.821C63.9708 148.092 61.6543 148.667 59.6459 149.475C59.7295 148.652 59.8739 147.82 60.0868 147.04C60.581 145.033 61.41 143.224 62.608 141.638C74.881 125.392 120.481 139.137 164.411 172.322C208.341 205.507 234.027 245.613 221.754 261.86L221.72 261.834Z" fill="#1BB2F7"/>
<path d="M439.335 239.254C416.569 254.259 358.138 245.765 297.279 216.781C236.42 187.796 192.944 147.758 190.301 120.652C192.858 118.959 195.908 117.501 199.399 116.392C226.396 107.768 278.385 117.351 332.329 143.042C386.274 168.734 426.479 203.057 436.799 229.453C438.137 232.863 438.928 236.15 439.28 239.228L439.335 239.254Z" fill="#6FD26E"/>
<path d="M349.199 107.766C266.334 68.3021 185.983 63.9898 169.708 98.1627C166.292 105.336 165.946 113.695 168.422 122.774C170.814 131.605 175.781 141.108 183.02 150.93C203.518 178.571 241.995 208.468 290.287 231.467C338.579 254.466 386.013 265.554 420.419 263.992C432.607 263.421 443.116 261.288 451.48 257.58C460.034 253.754 466.361 248.244 469.778 241.071C486.053 206.898 432.064 147.231 349.199 107.766ZM442.109 237.11C441.267 237.887 440.343 238.555 439.337 239.254C416.571 254.26 358.14 245.765 297.281 216.781C236.422 187.797 192.946 147.758 190.303 120.652C190.185 119.487 190.148 118.292 190.221 117.149C190.335 114.223 190.97 111.476 192.181 108.935C204.582 82.8954 271.77 88.9772 342.178 122.509C412.586 156.04 459.652 204.372 447.251 230.412C446.04 232.953 444.281 235.234 442.109 237.11Z" fill="#C5FB91"/>
<path d="M469.777 241.072L450.193 282.193C433.918 316.365 353.567 312.053 270.702 272.589C187.837 233.124 133.822 173.514 150.097 139.341L169.68 98.2205C166.264 105.394 165.918 113.753 168.394 122.832C170.786 131.663 175.753 141.166 182.992 150.988C203.49 178.629 241.967 208.526 290.259 231.525C338.551 254.524 385.986 265.611 420.391 264.05C432.58 263.479 443.088 261.346 451.452 257.638C460.006 253.812 466.333 248.302 469.75 241.129L469.777 241.072Z" fill="#15B369"/>
<path d="M447.278 230.356C446.067 232.898 444.308 235.179 442.136 237.054C441.294 237.832 440.37 238.5 439.364 239.199C439.067 236.147 438.221 232.834 436.883 229.425C426.563 203.029 386.358 168.705 332.413 143.014C278.469 117.323 226.453 107.796 199.483 116.363C195.992 117.473 192.942 118.93 190.385 120.623C190.267 119.458 190.23 118.263 190.303 117.119C190.417 114.194 191.052 111.447 192.263 108.906C204.664 82.8663 271.852 88.9481 342.26 122.48C412.667 156.011 459.734 204.343 447.333 230.383L447.278 230.356Z" fill="#15B369"/>
<path d="M669.079 263.362C641.438 278.593 574.794 263.445 507.224 224.434C439.654 185.422 393.152 135.245 392.583 103.727C395.688 102.008 399.341 100.605 403.47 99.6442C435.411 92.1635 494.52 107.978 554.414 142.558C614.307 177.137 657.558 220.42 667.05 251.822C668.282 255.878 668.894 259.743 669.018 263.327L669.079 263.362Z" fill="#F48C0F"/>
<path d="M577.102 103.404C485.099 50.2857 392.78 37.9579 370.874 75.8993C366.276 83.8639 365.113 93.4772 367.139 104.179C369.091 114.588 373.953 126.007 381.406 138.003C402.529 171.772 444.19 209.789 497.807 240.745C551.425 271.701 605.143 288.835 644.985 290.181C659.101 290.638 671.421 289.138 681.411 285.625C691.632 281.993 699.436 276.214 704.035 268.25C725.94 230.308 669.105 156.522 577.102 103.404ZM672.471 261.148C671.429 261.967 670.302 262.654 669.077 263.369C641.436 278.599 574.792 263.452 507.221 224.44C439.651 185.428 393.15 135.251 392.58 103.733C392.55 102.378 392.618 100.995 392.807 99.6831C393.206 96.318 394.19 93.2069 395.819 90.3848C412.511 61.4741 489.479 74.6391 567.652 119.772C645.824 164.904 695.709 224.979 679.018 253.89C677.388 256.712 675.15 259.182 672.471 261.148Z" fill="#F7B66D"/>
<path d="M704.033 268.256L677.674 313.912C655.769 351.853 563.45 339.525 471.447 286.407C379.444 233.289 322.572 159.565 344.478 121.624L370.837 75.969C366.238 83.9335 365.075 93.5468 367.101 104.249C369.053 114.658 373.915 126.077 381.368 138.073C402.491 171.842 444.152 209.859 497.77 240.815C551.388 271.771 605.105 288.905 644.948 290.251C659.063 290.707 671.384 289.208 681.374 285.694C691.594 282.063 699.399 276.284 703.997 268.319L704.033 268.256Z" fill="#EB692D"/>
<path d="M679.057 253.821C677.427 256.643 675.189 259.114 672.51 261.079C671.468 261.899 670.341 262.586 669.116 263.3C669.052 259.752 668.38 255.851 667.147 251.795C657.656 220.394 614.405 177.111 554.511 142.531C494.618 107.952 435.472 92.1995 403.568 99.6175C399.439 100.578 395.785 101.981 392.681 103.7C392.651 102.345 392.718 100.962 392.907 99.65C393.306 96.285 394.29 93.1738 395.919 90.3517C412.611 61.441 489.58 74.606 567.752 119.739C645.924 164.871 695.809 224.946 679.118 253.857L679.057 253.821Z" fill="#EB692D"/>
<path d="M852.217 279.596C824.961 286.318 771.189 257.961 722.114 208.886C673.039 159.811 644.637 105.994 651.404 78.7832C654.468 78.0207 657.93 77.6566 661.699 77.7818C690.864 78.7076 738.009 105.904 781.508 149.403C825.008 192.902 852.204 240.048 853.13 269.213C853.255 272.982 852.891 276.444 852.173 279.551L852.217 279.596Z" fill="#EBB22D"/>
<path d="M810.018 120.983C743.199 54.1636 666.717 22.318 639.161 49.8739C633.377 55.6584 630.164 63.6502 629.441 73.312C628.722 82.7043 630.27 93.6351 633.912 105.658C644.287 139.535 671.329 181.79 710.27 220.731C749.212 259.672 791.421 286.76 825.343 297.089C837.366 300.731 848.297 302.279 857.689 301.56C867.307 300.793 875.343 297.625 881.127 291.84C908.683 264.284 876.838 187.803 810.018 120.983ZM855.643 278.472C854.559 278.936 853.432 279.267 852.215 279.598C824.96 286.321 771.187 257.963 722.113 208.889C673.038 159.814 644.636 105.997 651.403 78.7859C651.689 77.6146 652.065 76.4421 652.53 75.358C653.648 72.5587 655.209 70.1121 657.259 68.0625C678.256 47.0654 741.356 76.0964 798.131 132.871C854.905 189.645 883.936 252.746 862.939 273.743C860.889 275.792 858.397 277.399 855.643 278.472Z" fill="#FFD24D"/>
<path d="M881.128 291.84L847.97 324.998C820.414 352.554 743.933 320.709 677.113 253.889C610.294 187.07 578.402 110.634 605.958 83.0778L639.117 49.9196C633.332 55.704 630.119 63.6959 629.396 73.3576C628.677 82.75 630.225 93.6807 633.868 105.704C644.242 139.58 671.285 181.835 710.226 220.777C749.167 259.718 791.376 286.806 825.299 297.135C837.322 300.777 848.252 302.325 857.645 301.606C867.262 300.839 875.298 297.67 881.083 291.886L881.128 291.84Z" fill="#FFB300"/>
<path d="M862.985 273.697C860.935 275.747 858.443 277.354 855.69 278.426C854.606 278.89 853.479 279.221 852.262 279.553C853.024 276.489 853.344 272.983 853.219 269.214C852.293 240.049 825.097 192.903 781.598 149.404C738.099 105.905 690.907 78.7544 661.788 77.7829C658.019 77.6578 654.557 78.0219 651.493 78.7844C651.78 77.6131 652.156 76.4406 652.62 75.3565C653.738 72.5572 655.3 70.1106 657.349 68.061C678.346 47.0639 741.446 76.0949 798.221 132.869C854.995 189.644 884.026 252.744 863.029 273.741L862.985 273.697Z" fill="#FFB300"/>
</svg>
