<svg width="24" height="24" viewBox="0 0 24 24" fill="none" xmlns="http://www.w3.org/2000/svg">
<path d="M8.09253 2.625C5.0779 2.625 2.625 5.07935 2.625 8.09473V15.9067C2.625 18.9217 5.07935 21.375 8.09473 21.375H15.9067C18.9217 21.375 21.375 18.9206 21.375 15.9053V8.09253C21.375 5.0779 18.9206 2.625 15.9053 2.625H8.09253ZM17.625 5.625C18.039 5.625 18.375 5.961 18.375 6.375C18.375 6.789 18.039 7.125 17.625 7.125C17.211 7.125 16.875 6.789 16.875 6.375C16.875 5.961 17.211 5.625 17.625 5.625ZM12 7.125C14.6888 7.125 16.875 9.31125 16.875 12C16.875 14.6888 14.6884 16.875 12 16.875C9.31125 16.875 7.125 14.6884 7.125 12C7.125 9.31163 9.31125 7.125 12 7.125ZM12 8.625C10.1359 8.625 8.625 10.1359 8.625 12C8.625 13.8641 10.1359 15.375 12 15.375C13.8641 15.375 15.375 13.8641 15.375 12C15.375 10.1359 13.8641 8.625 12 8.625Z" fill="white"/>
</svg>
