<svg width="24" height="24" viewBox="0 0 24 24" fill="none" xmlns="http://www.w3.org/2000/svg">
<path d="M18.4004 2.40039C19.2491 2.40039 20.063 2.73753 20.6631 3.33765C21.2632 3.93777 21.6004 4.7517 21.6004 5.60039V18.4004C21.6004 19.2491 21.2632 20.063 20.6631 20.6631C20.063 21.2632 19.2491 21.6004 18.4004 21.6004H5.60039C4.7517 21.6004 3.93777 21.2632 3.33765 20.6631C2.73753 20.063 2.40039 19.2491 2.40039 18.4004V5.60039C2.40039 4.7517 2.73753 3.93777 3.33765 3.33765C3.93777 2.73753 4.7517 2.40039 5.60039 2.40039H18.4004ZM9.56039 9.92039H7.32839V16.4004H9.56839V9.92039H9.56039ZM15.0324 9.76839C13.9764 9.76839 13.4324 10.2724 13.1284 10.6964L13.0244 10.8404V9.92039H10.7924L10.8004 10.3124V16.4004H13.0244V12.7844C13.0111 12.6168 13.0327 12.4483 13.0879 12.2895C13.143 12.1307 13.2305 11.9851 13.3447 11.8618C13.459 11.7385 13.5976 11.6402 13.7518 11.5732C13.9059 11.5062 14.0723 11.4719 14.2404 11.4724C15.0084 11.4724 15.3364 12.0004 15.3684 12.8004V16.4004H17.6004V12.6884C17.6004 10.6964 16.5044 9.76839 15.0404 9.76839H15.0324ZM8.46439 6.80039C7.69639 6.80039 7.20039 7.28039 7.20039 7.92039C7.20039 8.50439 7.63239 8.97639 8.30439 9.04039H8.44839C9.22439 9.04039 9.70439 8.54439 9.70439 7.92039C9.69639 7.28039 9.22439 6.80039 8.46439 6.80039Z" fill="white"/>
</svg>
