<svg width="311" height="313" viewBox="0 0 311 313" fill="none" xmlns="http://www.w3.org/2000/svg">
<ellipse cx="159.603" cy="278.886" rx="150.5" ry="32" fill="#042213"/>
<path d="M149.529 263.176C141.843 273.409 114.171 279.271 81.9447 276.636C49.7185 274 23.4288 263.726 17.66 252.393C18.5218 251.24 19.6451 250.109 21.0249 249.057C31.6893 240.902 56.6528 236.566 85.2176 238.902C113.782 241.238 137.638 249.566 146.733 259.337C147.911 260.598 148.821 261.895 149.5 263.174L149.529 263.176Z" fill="#F48C0F"/>
<path d="M86.8293 220.834C42.9505 217.246 6.14275 228.504 4.61197 245.996C4.29063 249.668 5.54859 253.353 8.19508 256.889C10.762 260.331 14.5987 263.644 19.5093 266.725C33.3859 275.372 55.7164 282.061 81.2881 284.152C106.86 286.244 130.033 283.305 145.218 277.004C150.594 274.765 154.952 272.122 158.08 269.146C161.275 266.087 163.184 262.662 163.505 258.99C165.036 241.498 130.708 224.422 86.8293 220.834ZM150.412 261.792C150.166 262.267 149.864 262.708 149.53 263.176C141.845 273.409 114.172 279.27 81.946 276.635C49.7198 274 23.4301 263.726 17.6613 252.392C17.4112 251.906 17.1927 251.393 17.0323 250.885C16.5889 249.596 16.4097 248.301 16.5235 246.999C17.69 233.671 48.8865 225.331 86.1689 228.38C123.451 231.429 152.755 244.716 151.589 258.044C151.475 259.346 151.07 260.623 150.412 261.792Z" fill="#F7B66D"/>
<path d="M163.506 258.99L161.664 280.038C160.134 297.53 123.326 308.789 79.4472 305.201C35.5684 301.612 1.23771 284.566 2.7685 267.073L4.6105 246.025C4.28916 249.697 5.54712 253.381 8.19361 256.918C10.7605 260.36 14.5972 263.673 19.5078 266.753C33.3844 275.401 55.7149 282.09 81.2866 284.181C106.858 286.272 130.031 283.333 145.216 277.033C150.592 274.794 154.95 272.151 158.079 269.175C161.273 266.116 163.183 262.691 163.504 259.019L163.506 258.99Z" fill="#EB692D"/>
<path d="M151.591 258.016C151.477 259.317 151.073 260.594 150.414 261.763C150.168 262.238 149.866 262.679 149.532 263.147C148.883 261.871 147.943 260.571 146.766 259.31C137.67 249.539 113.815 241.211 85.2503 238.875C56.6855 236.539 31.7195 240.904 21.0576 249.03C19.6778 250.082 18.5545 251.213 17.6927 252.366C17.4426 251.88 17.2241 251.367 17.0637 250.858C16.6204 249.57 16.4411 248.274 16.555 246.973C17.7214 233.644 48.9179 225.305 86.2003 228.354C123.483 231.402 152.787 244.689 151.62 258.018L151.591 258.016Z" fill="#EB692D"/>
<path d="M156.113 228.321C147.347 237.707 119.187 240.694 87.4327 234.765C55.6783 228.836 30.6662 215.921 26.1751 204.06C27.1587 203.002 28.3999 201.993 29.8875 201.088C41.3875 194.074 66.6862 192.326 94.8328 197.581C122.979 202.837 145.785 213.566 153.755 224.216C154.788 225.591 155.551 226.974 156.085 228.315L156.113 228.321Z" fill="#EBB22D"/>
<path d="M98.4201 179.782C55.1837 171.709 17.3472 179.125 13.9032 196.361C13.1803 199.979 14.0263 203.772 16.2693 207.56C18.4435 211.246 21.8945 214.934 26.4389 218.501C39.2869 228.525 60.7562 237.469 85.9535 242.173C111.151 246.878 134.516 246.335 150.307 241.629C155.899 239.954 160.522 237.774 163.96 235.135C167.472 232.422 169.747 229.212 170.47 225.594C173.914 208.358 141.656 187.854 98.4201 179.782ZM157.143 227.036C156.846 227.483 156.497 227.891 156.114 228.321C147.348 237.708 119.188 240.695 87.4336 234.766C55.6792 228.837 30.667 215.922 26.176 204.06C25.9807 203.551 25.8198 203.019 25.7161 202.497C25.4169 201.17 25.381 199.863 25.6372 198.581C28.2614 185.448 60.1977 180.358 96.9343 187.217C133.671 194.076 161.349 210.297 158.725 223.43C158.469 224.712 157.926 225.941 157.143 227.036Z" fill="#FFD24D"/>
<path d="M170.471 225.592L166.327 246.333C162.883 263.569 125.047 270.985 81.8103 262.912C38.5739 254.839 6.31028 234.364 9.75423 217.128L13.8984 196.388C13.1754 200.006 14.0214 203.799 16.2645 207.587C18.4387 211.273 21.8896 214.961 26.434 218.528C39.2821 228.552 60.7513 237.496 85.9487 242.2C111.146 246.905 134.511 246.362 150.302 241.656C155.894 239.981 160.517 237.801 163.955 235.162C167.468 232.449 169.743 229.239 170.466 225.621L170.471 225.592Z" fill="#FFB300"/>
<path d="M158.732 223.401C158.475 224.683 157.933 225.911 157.15 227.006C156.853 227.453 156.504 227.861 156.121 228.292C155.615 226.956 154.824 225.567 153.791 224.193C145.821 213.543 123.015 202.813 94.8688 197.558C66.7222 192.303 41.4178 194.079 29.9235 201.065C28.4359 201.969 27.1947 202.979 26.2111 204.036C26.0159 203.527 25.8549 202.995 25.7513 202.473C25.452 201.146 25.4161 199.839 25.6723 198.557C28.2965 185.424 60.2329 180.334 96.9695 187.193C133.706 194.052 161.384 210.273 158.76 223.406L158.732 223.401Z" fill="#FFB300"/>
<path d="M170.302 189.544C160.218 197.599 131.908 196.598 101.382 186.27C70.8565 175.943 48.0518 159.651 45.392 147.284C46.5241 146.376 47.904 145.552 49.5117 144.866C61.9442 139.542 87.2371 141.367 114.295 150.521C141.352 159.675 162.302 173.496 168.587 185.152C169.401 186.657 169.948 188.133 170.275 189.535L170.302 189.544Z" fill="#9D8FFF"/>
<path d="M120.52 133.413C78.9565 119.352 40.4067 121.373 34.4077 137.942C33.1484 141.42 33.4152 145.291 35.0648 149.354C36.6617 153.307 39.5215 157.441 43.4812 161.609C54.6857 173.331 74.5822 185.196 98.8046 193.391C123.027 201.586 146.225 204.331 162.556 201.894C168.341 201.023 173.243 199.515 177.041 197.388C180.924 195.197 183.658 192.341 184.917 188.863C190.916 172.293 162.083 147.475 120.52 133.413ZM171.514 188.417C171.153 188.817 170.747 189.172 170.303 189.544C160.218 197.599 131.908 196.598 101.383 186.27C70.857 175.943 48.0523 159.651 45.3925 147.284C45.2759 146.753 45.1967 146.203 45.1726 145.673C45.076 144.318 45.237 143.02 45.6832 141.787C50.2543 129.162 82.6168 128.614 117.932 140.561C153.247 152.509 178.193 172.446 173.621 185.072C173.175 186.304 172.454 187.444 171.514 188.417Z" fill="#B7AFFF"/>
<path d="M184.917 188.862L177.698 208.8C171.699 225.369 133.15 227.39 91.5862 213.328C50.0228 199.266 21.1804 174.476 27.1794 157.907L34.398 137.969C33.1387 141.447 33.4055 145.318 35.0552 149.381C36.652 153.334 39.5118 157.468 43.4716 161.636C54.676 173.358 74.5725 185.223 98.7949 193.418C123.017 201.613 146.216 204.358 162.547 201.921C168.331 201.05 173.233 199.542 177.031 197.415C180.914 195.224 183.648 192.368 184.907 188.889L184.917 188.862Z" fill="#897AF8"/>
<path d="M173.631 185.046C173.185 186.278 172.463 187.417 171.524 188.391C171.163 188.791 170.756 189.145 170.312 189.518C170.013 188.125 169.439 186.64 168.624 185.135C162.339 173.479 141.39 159.658 114.332 150.504C87.2745 141.35 61.9717 139.553 49.5491 144.849C47.9414 145.535 46.5615 146.359 45.4294 147.267C45.3128 146.736 45.2336 146.186 45.2095 145.656C45.1129 144.301 45.274 143.003 45.7202 141.77C50.2913 129.145 82.6537 128.597 117.969 140.545C153.284 152.492 178.23 172.43 173.658 185.055L173.631 185.046Z" fill="#897AF8"/>
<path d="M191.47 151.059C180.547 158.018 152.513 154.079 123.314 140.636C94.1147 127.194 73.2559 108.624 71.9879 96.0527C73.2145 95.2676 74.6781 94.5916 76.3528 94.0771C89.3057 90.0773 114.249 94.5221 140.13 106.437C166.012 118.353 185.302 134.271 190.253 146.514C190.895 148.095 191.274 149.619 191.443 151.047L191.47 151.059Z" fill="#6FD26E"/>
<path d="M148.222 90.077C108.465 71.7739 69.9139 69.7739 62.1055 85.6229C60.4664 88.9499 60.3007 92.8266 61.4886 97.0373C62.6363 101.133 65.0193 105.54 68.4922 110.096C78.3269 122.915 96.7873 136.781 119.957 147.448C143.127 158.115 165.885 163.257 182.392 162.533C188.24 162.268 193.282 161.279 197.294 159.559C201.399 157.784 204.434 155.229 206.073 151.902C213.882 136.053 187.979 108.38 148.222 90.077ZM192.798 150.065C192.395 150.425 191.951 150.735 191.468 151.06C180.546 158.019 152.512 154.079 123.313 140.637C94.1136 127.194 73.2547 108.625 71.9867 96.0533C71.9299 95.5129 71.9124 94.9585 71.9475 94.4283C72.0022 93.0715 72.3068 91.7977 72.8876 90.6188C78.8374 78.5421 111.073 81.3628 144.853 96.9144C178.634 112.466 201.215 134.882 195.265 146.958C194.685 148.137 193.841 149.195 192.798 150.065Z" fill="#C5FB91"/>
<path d="M206.075 151.902L196.679 170.973C188.871 186.822 150.32 184.822 110.563 166.519C70.8057 148.216 44.8901 120.569 52.6984 104.72L62.0943 85.6492C60.4552 88.9762 60.2894 92.853 61.4774 97.0636C62.625 101.159 65.0081 105.567 68.4809 110.122C78.3157 122.942 96.776 136.807 119.946 147.474C143.115 158.141 165.873 163.283 182.381 162.559C188.228 162.294 193.27 161.305 197.283 159.585C201.387 157.811 204.423 155.255 206.062 151.928L206.075 151.902Z" fill="#15B369"/>
<path d="M195.278 146.932C194.697 148.111 193.853 149.169 192.81 150.039C192.407 150.399 191.963 150.709 191.481 151.033C191.338 149.618 190.932 148.081 190.29 146.5C185.339 134.258 166.049 118.339 140.168 106.424C114.286 94.5086 89.3301 90.09 76.3901 94.0635C74.7154 94.5781 73.2518 95.2541 72.0252 96.0392C71.9684 95.4988 71.9508 94.9444 71.986 94.4142C72.0407 93.0574 72.3453 91.7836 72.926 90.6047C78.8759 78.528 111.112 81.3487 144.892 96.9003C178.672 112.452 201.254 134.868 195.304 146.944L195.278 146.932Z" fill="#15B369"/>
<path d="M212.383 117.487C200.236 122.18 173.594 112.871 147.789 94.0269C121.983 75.1826 105.413 52.9373 106.787 40.3763C108.152 39.8457 109.726 39.468 111.474 39.2896C124.994 37.8897 148.503 47.0928 171.376 63.7961C194.25 80.4994 209.834 99.8432 212.137 112.798C212.437 114.472 212.492 116.039 212.36 117.47L212.383 117.487Z" fill="#6AB4F9"/>
<path d="M182.708 49.3433C147.571 23.6851 110.224 14.2314 99.278 28.2386C96.9802 31.1789 96.0113 34.9442 96.299 39.2998C96.5711 43.535 97.9885 48.3156 100.443 53.4532C107.409 67.9226 122.608 85.0939 143.085 100.047C163.562 115 184.785 124.462 201.106 126.961C206.889 127.839 212.034 127.85 216.323 126.946C220.712 126.005 224.217 124.092 226.515 121.152C237.461 107.145 217.845 75.0015 182.708 49.3433ZM213.894 116.772C213.423 117.046 212.924 117.264 212.384 117.487C200.237 122.181 173.595 112.872 147.789 94.0274C121.983 75.1831 105.414 52.9379 106.787 40.3768C106.844 39.8365 106.942 39.2899 107.087 38.7774C107.423 37.459 107.986 36.2704 108.8 35.2285C117.141 24.5553 148.131 33.5851 177.986 55.3861C207.841 77.1871 225.297 103.535 216.957 114.208C216.142 115.25 215.096 116.122 213.894 116.772Z" fill="#93CAFD"/>
<path d="M226.514 121.153L213.343 138.007C202.397 152.015 165.049 142.561 129.913 116.903C94.7757 91.2445 75.1413 59.1245 86.0874 45.1173L99.259 28.2624C96.9612 31.2028 95.9923 34.9681 96.28 39.3237C96.5521 43.5588 97.9695 48.3394 100.424 53.477C107.39 67.9464 122.589 85.1178 143.066 100.071C163.543 115.024 184.766 124.486 201.087 126.985C206.87 127.863 212.015 127.874 216.304 126.969C220.693 126.029 224.198 124.116 226.496 121.176L226.514 121.153Z" fill="#1BB2F7"/>
<path d="M216.974 114.186C216.16 115.227 215.113 116.099 213.911 116.749C213.441 117.024 212.942 117.241 212.402 117.465C212.557 116.051 212.479 114.466 212.179 112.793C209.876 99.8381 194.292 80.4943 171.418 63.7909C148.544 47.0876 125.017 37.9077 111.515 39.2844C109.768 39.4629 108.193 39.8406 106.828 40.3712C106.885 39.8308 106.983 39.2843 107.128 38.7717C107.464 37.4533 108.027 36.2647 108.841 35.2229C117.182 24.5496 148.172 33.5795 178.027 55.3805C207.882 77.1814 225.339 103.529 216.998 114.203L216.974 114.186Z" fill="#1BB2F7"/>
</svg>
