<svg width="24" height="24" viewBox="0 0 24 24" fill="none" xmlns="http://www.w3.org/2000/svg">
<path d="M3.85123 19.0302C3.29425 18.1904 3.00001 17.178 3 16C3.45007 12.8495 4.71037 10.5093 7.51024 8.24996H16.5V8.18555C19.2411 10.42 20.5413 12.7892 21 16C21 17.178 20.7058 18.1904 20.1488 19.0302C19.5957 19.8642 18.8228 20.469 17.9544 20.9025C16.2468 21.7548 14.0585 22 12 22C9.94146 22 7.75317 21.7548 6.04565 20.9025C5.17717 20.469 4.40435 19.8642 3.85123 19.0302Z" fill="#575B60"/>
<path d="M16.0452 4.74275C16.3807 3.84791 16.0423 2.81349 15.1405 2.49711C14.1774 2.15923 13.1283 2 11.9997 2C10.8711 2 9.82201 2.15923 8.8589 2.49711C7.9571 2.81349 7.61864 3.84791 7.9542 4.74275L8.70192 6.73666L8.66634 6.75H15.333L15.2975 6.73666L16.0452 4.74275Z" fill="#575B60"/>
</svg>
